<svg width="160" height="119" viewBox="0 0 160 119" fill="none" xmlns="http://www.w3.org/2000/svg">
<path d="M144.212 0C144.945 4.34907 145.884 7.52107 150.647 8.70047C148.216 9.49366 144.373 11.369 146.525 14.5473C145.683 14.7872 143.611 14.1034 143.138 13.3006C140.942 9.62446 129.973 10.1916 126.167 10.5978C125.087 10.8344 124.004 11.0372 122.923 11.2756C107.222 14.7354 95.8612 25.7071 83.972 35.7335C85.874 37.3372 87.5877 39.0954 89.5406 40.674C97.4076 47.0339 106.059 51.3382 116.443 50.4839C131.754 49.2244 144.113 36.1226 142.852 20.5224C142.736 19.0882 142.457 17.7172 142.303 16.3114C145.12 23.1968 144.805 32.019 141.929 38.7647C135.268 54.3875 115.083 62.9746 99.3678 56.0653C91.5637 52.6342 84.3942 46.9027 78.5928 40.7027C65.1859 53.1259 51.9275 62.0855 32.8538 61.2892C19.84 60.7458 5.19743 53.776 6.04809 38.9219C6.9796 22.6555 23.6235 13.1239 38.6074 14.257C54.4573 15.4555 63.772 23.4208 74.1666 34.1865L74.9871 33.5333C75.9376 32.642 76.9046 31.7684 77.8875 30.913C86.7706 22.5162 94.8685 12.8447 106.183 7.6511C112.324 4.83178 120.716 3.07503 127.471 4.00259C130.465 4.26435 133.027 4.75669 135.918 5.54693C137.681 6.02887 141.074 7.94157 142.46 6.59801C143.984 5.1207 144.035 1.96825 144.212 0ZM44.327 55.1913C55.1529 51.2999 64.419 43.8646 72.4946 35.8089C61.0414 24.8188 50.8338 17.2258 34.2778 17.5589L33.6465 17.5724C24.9632 18.5223 17.621 21.0414 11.8922 27.9876C6.15518 34.9435 5.60235 46.0759 13.2136 51.9584C21.6414 58.4725 34.646 58.9623 44.327 55.1913ZM117.346 56.5838L118.172 56.397C117.628 56.3651 116.997 56.4183 116.463 56.4836C103.04 58.1243 91.6405 49.4183 83.214 39.9398C82.673 39.3312 82.0472 38.6572 81.5586 37.9872L80.3074 39.1042C90.5069 49.5124 101.478 59.6981 117.346 56.5838Z" fill="url(#paint0_linear_439_2927)"/>
<path d="M144.211 0C144.943 4.34907 145.882 7.52107 150.645 8.70047C148.215 9.49366 144.372 11.369 146.523 14.5473C145.682 14.7872 143.61 14.1034 143.137 13.3006C140.941 9.62446 129.972 10.1916 126.165 10.5978L125.836 10.4665C126.634 10.236 127.549 10.3513 128.264 10.1227C130.01 9.56504 133.367 10.2712 134.958 9.96753L134.857 9.73897C133.676 9.76132 132.594 9.33881 131.588 8.71598C131.11 8.41946 130.625 7.97493 130.376 7.41618L130.462 6.85496C130.015 6.07837 129.616 6.08349 129.409 5.18168C129.894 4.72798 130.26 5.18369 131.089 4.64714C129.41 4.62775 127.795 4.13681 125.618 4.11741C126.235 4.07459 126.852 4.03642 127.47 4.00259C130.464 4.26435 133.025 4.75669 135.917 5.54693C137.68 6.02887 141.073 7.94157 142.459 6.59801C143.983 5.1207 144.034 1.96825 144.211 0Z" fill="#EBCA6C"/>
<path d="M35.1572 4.51944C36.5829 4.49213 37.8228 4.5365 39.2489 4.60043C53.9201 6.06982 64.1533 14.0547 73.3309 25.0866C74.6472 26.6688 76.6097 29.5401 77.8864 30.9127C76.9035 31.7681 75.9364 32.6417 74.986 33.5329C65.0832 22.7835 54.8529 14.4392 39.8974 12.9494C39.4592 12.888 38.5203 12.8581 38.0418 12.8273L37.971 12.5988L37.6457 12.4466C36.1431 9.27224 36.2239 7.81107 35.1572 4.51944Z" fill="url(#paint1_linear_439_2927)"/>
<path d="M35.1572 4.51944C36.5829 4.49213 37.8228 4.5365 39.2489 4.60043C38.9541 4.78352 38.7535 4.81812 38.7222 5.08081C38.5658 6.39303 40.7609 11.8616 40.5633 12.5755C40.3192 12.6973 40.1077 12.7806 39.8974 12.9494C39.4592 12.888 38.5203 12.8581 38.0418 12.8273L37.971 12.5988L37.6457 12.4466C36.1431 9.27224 36.2239 7.81107 35.1572 4.51944Z" fill="url(#paint2_linear_439_2927)"/>
<path d="M5.63787 45.22C4.16129 42.0365 3.64556 39.6088 3.51488 36.1041C3.18973 28.2946 5.97031 20.6739 11.2487 14.908C17.4516 8.26116 26.1436 4.81592 35.1576 4.52002C36.2243 7.81165 36.1434 9.27282 37.6461 12.4472L37.9714 12.5994L38.0421 12.8279C34.4936 12.8774 31.845 12.8863 28.2958 13.5836C20.5685 15.0769 13.7462 19.5667 9.31908 26.0722C5.40336 31.9298 4.29088 38.3842 5.63787 45.22Z" fill="url(#paint3_linear_439_2927)"/>
<path d="M117.715 13.6211C118.199 13.3315 119.661 12.923 120.277 12.7573C125.611 11.3229 131.086 11.1094 136.541 11.8907C138.068 12.1093 142.036 13.6381 143.138 13.3002C143.612 14.103 145.684 14.7868 146.525 14.5469C152.581 19.7092 156.363 23.1363 156.51 31.8163C154.813 26.4419 152.618 23.0434 148.081 19.5432C141.647 14.674 133.701 12.231 125.64 12.6443C123.189 12.7646 120.206 13.2962 117.715 13.6211Z" fill="#D4AF56"/>
<path d="M139.526 81.2507C143.736 80.9963 147.944 81.6495 151.664 83.7892C160.774 89.0136 162.641 102.368 156.156 110.342C152.49 114.848 148.225 116.569 142.583 117.168C141.773 117.187 140.954 117.207 140.142 117.182C116.812 116.429 115.296 83.0041 139.526 81.2507ZM142.535 114.212C145.184 114.113 148.067 112.522 149.839 110.601C157.616 102.173 153.3 83.0351 140.083 83.5751C136.686 83.9351 133.783 85.2198 131.687 87.9352C126.814 94.2457 127.005 106.587 133.571 111.705C136.391 113.902 139.11 114.465 142.535 114.212Z" fill="url(#paint4_linear_439_2927)"/>
<path d="M0 81.5595C1.36825 81.3717 5.78651 81.4307 7.31043 81.4524C11.3914 81.5082 15.4715 81.2724 19.5378 81.6355C29.9707 82.568 37.578 90.1012 36.2315 100.97C35.6028 106.044 33.6167 109.104 29.6594 112.243C23.6306 116.456 17.8161 116.268 10.8212 116.245C7.25456 116.234 3.6882 116.195 0.122144 116.125C1.18682 115.667 2.44504 115.478 2.96744 114.297C3.36398 113.401 3.3393 84.5246 2.90288 83.513C2.38854 82.3213 1.09013 82.0234 0 81.5595ZM9.63255 114.012L9.78403 113.998C15.7223 113.49 20.87 115.107 26.0399 110.147C31.7167 104.437 31.4141 93.6482 25.7638 87.9568C21.2118 83.3718 15.513 83.7721 9.5967 83.8186L9.63255 114.012Z" fill="#A88134"/>
<path d="M75.9787 81.418C76.3784 81.4025 76.3655 81.3342 76.6351 81.5158C76.8941 83.73 77.1334 86.8534 77.1847 89.0598C74.1738 82.7059 71.4621 84.0418 65.13 83.8634C64.2434 83.8386 63.3262 83.8665 62.4384 83.8696C62.4179 88.2406 62.6158 93.4463 62.468 97.7117C64.9494 97.7164 69.7027 98.0608 71.8231 97.1268C73.6779 96.3106 74.2615 94.4533 74.866 92.7325C75.1109 94.2671 75.0288 102.402 74.9032 104.114C73.2174 99.6373 71.2963 99.9275 66.8255 99.96C65.3945 99.9693 63.8714 99.9709 62.4334 99.974C62.5242 104.581 62.4839 109.374 62.5194 114.002C63.8583 113.974 65.2922 113.99 66.6287 113.984C74.162 113.942 75.8343 114.863 79.4394 107.785C79.4197 109.856 78.8708 114.071 78.6414 116.244L62.6059 116.234C59.7814 116.237 56.2463 116.325 53.4859 116.136C54.6274 115.753 56.159 115.408 56.3772 113.996C56.6361 112.325 56.5414 110.551 56.5411 108.854L56.5383 100.536C53.9779 100.523 51.4174 100.525 48.8571 100.54C47.5802 103.132 46.2841 105.713 44.9688 108.286C44.2383 109.731 43.4856 111.113 42.8832 112.618C41.8529 115.196 43.426 115.421 45.3949 116.162C42.5014 116.345 38.728 116.238 35.7676 116.232C37.1635 115.535 38.3902 115.106 39.223 113.697C40.2785 111.912 41.1577 110.043 42.0742 108.184L46.5627 99.0492L50.5835 90.8209C51.5119 88.9124 52.5322 87.0442 53.1395 85.007C53.938 82.3273 51.0013 81.9828 49.1147 81.6446C51.5171 81.3172 56.0545 81.4413 58.676 81.4429C64.4436 81.4692 70.2112 81.4615 75.9787 81.418ZM50.2179 98.0888L56.5266 98.0283C56.5316 93.693 56.4813 89.2258 56.5718 84.9014C55.8414 86.5617 50.1774 97.569 50.2179 98.0888Z" fill="#A88134"/>
<path d="M94.0216 81.4121L95.7946 81.5192C95.0011 81.8947 93.2133 82.6689 93.0202 83.5021C92.6939 84.9126 94.1245 87.5922 94.6887 88.8336C95.4654 90.5435 96.2231 92.1463 96.9743 93.8081L103.797 109.149C106.295 102.86 109.384 96.6957 111.983 90.441C112.88 88.2827 115.164 84.5091 112.808 82.6751C112.123 82.1414 110.824 81.8233 109.959 81.5766C113.268 81.3112 118.402 81.3857 121.749 81.5005C117.63 83.2446 117.169 85.9491 115.336 90.0702C111.692 97.8361 108.29 105.745 104.654 113.517C103.859 115.214 103.139 116.918 102.256 118.575C101.208 117.089 98.578 111.276 97.6153 109.248L89.0252 91.2246C87.8853 88.8304 86.5634 85.7086 85.0373 83.5611C84.2939 82.5153 82.8769 81.9908 81.7168 81.5052C85.7371 81.3873 89.9768 81.4509 94.0216 81.4121Z" fill="url(#paint5_linear_439_2927)"/>
<defs>
<linearGradient id="paint0_linear_439_2927" x1="28.2546" y1="73.2932" x2="123.768" y2="-4.74779" gradientUnits="userSpaceOnUse">
<stop stop-color="#8B6523"/>
<stop offset="1" stop-color="#D8B457"/>
</linearGradient>
<linearGradient id="paint1_linear_439_2927" x1="45.2223" y1="23.692" x2="70.1331" y2="13.4231" gradientUnits="userSpaceOnUse">
<stop stop-color="#B99342"/>
<stop offset="1" stop-color="#EECF6B"/>
</linearGradient>
<linearGradient id="paint2_linear_439_2927" x1="33.0553" y1="10.1248" x2="43.8132" y2="9.71102" gradientUnits="userSpaceOnUse">
<stop stop-color="#A78236"/>
<stop offset="1" stop-color="#C19C48"/>
</linearGradient>
<linearGradient id="paint3_linear_439_2927" x1="5.59146" y1="21.4938" x2="35.0248" y2="26.4727" gradientUnits="userSpaceOnUse">
<stop stop-color="#866223"/>
<stop offset="1" stop-color="#B18C3C"/>
</linearGradient>
<linearGradient id="paint4_linear_439_2927" x1="140.916" y1="116.873" x2="140.971" y2="81.4897" gradientUnits="userSpaceOnUse">
<stop stop-color="#AB8436"/>
<stop offset="1" stop-color="#C49F47"/>
</linearGradient>
<linearGradient id="paint5_linear_439_2927" x1="89.26" y1="112.587" x2="104.41" y2="75.1549" gradientUnits="userSpaceOnUse">
<stop stop-color="#AC8537"/>
<stop offset="1" stop-color="#C8A246"/>
</linearGradient>
</defs>
</svg>
